<svg width="22" height="22" viewBox="0 0 22 22" fill="none" xmlns="http://www.w3.org/2000/svg">
<g clip-path="url(#clip0_202_46)">
<path d="M19.25 18.3333C19.25 18.5765 19.1534 18.8096 18.9815 18.9815C18.8096 19.1534 18.5764 19.25 18.3333 19.25H3.66667C3.42355 19.25 3.19039 19.1534 3.01849 18.9815C2.84658 18.8096 2.75 18.5765 2.75 18.3333V8.69917C2.7499 8.55948 2.78173 8.42162 2.84306 8.29611C2.90438 8.17061 2.99358 8.06077 3.10383 7.97501L10.4372 2.27151C10.5981 2.14633 10.7961 2.07837 11 2.07837C11.2039 2.07837 11.4019 2.14633 11.5628 2.27151L18.8962 7.97501C19.0064 8.06077 19.0956 8.17061 19.1569 8.29611C19.2183 8.42162 19.2501 8.55948 19.25 8.69917V18.3333Z" fill="#0BAF6D"/>
</g>
<defs>
<clipPath id="clip0_202_46">
<rect width="22" height="22" fill="white"/>
</clipPath>
</defs>
</svg>
