<svg width="22" height="22" viewBox="0 0 22 22" fill="none" xmlns="http://www.w3.org/2000/svg">
<g clip-path="url(#clip0_202_64)">
<path d="M17.4168 20.1667H4.5835C3.85415 20.1667 3.15468 19.877 2.63895 19.3613C2.12323 18.8455 1.8335 18.1461 1.8335 17.4167V2.75004C1.8335 2.50693 1.93007 2.27377 2.10198 2.10186C2.27389 1.92995 2.50705 1.83337 2.75016 1.83337H15.5835C15.8266 1.83337 16.0598 1.92995 16.2317 2.10186C16.4036 2.27377 16.5002 2.50693 16.5002 2.75004V13.75H20.1668V17.4167C20.1668 18.1461 19.8771 18.8455 19.3614 19.3613C18.8456 19.877 18.1462 20.1667 17.4168 20.1667ZM16.5002 15.5834V17.4167C16.5002 17.6598 16.5967 17.893 16.7686 18.0649C16.9406 18.2368 17.1737 18.3334 17.4168 18.3334C17.6599 18.3334 17.8931 18.2368 18.065 18.0649C18.2369 17.893 18.3335 17.6598 18.3335 17.4167V15.5834H16.5002ZM5.50016 6.41671V8.25004H12.8335V6.41671H5.50016ZM5.50016 10.0834V11.9167H12.8335V10.0834H5.50016ZM5.50016 13.75V15.5834H10.0835V13.75H5.50016Z" fill="#69768C"/>
</g>
<defs>
<clipPath id="clip0_202_64">
<rect width="22" height="22" fill="white"/>
</clipPath>
</defs>
</svg>
