<svg width="24" height="24" viewBox="0 0 24 24" fill="none" xmlns="http://www.w3.org/2000/svg">
<g clip-path="url(#clip0_116_153)">
<path d="M6 12C6.52131 9.15556 9.00971 7 12 7C14.9903 7 17.4781 9.15556 18 12C17.4787 14.8444 14.9903 17 12 17C9.00971 17 6.52186 14.8444 6 12ZM12 14.7778C12.7354 14.7778 13.4407 14.4851 13.9607 13.9642C14.4808 13.4433 14.7729 12.7367 14.7729 12C14.7729 11.2633 14.4808 10.5567 13.9607 10.0358C13.4407 9.51488 12.7354 9.22222 12 9.22222C11.2646 9.22222 10.5593 9.51488 10.0393 10.0358C9.51924 10.5567 9.2271 11.2633 9.2271 12C9.2271 12.7367 9.51924 13.4433 10.0393 13.9642C10.5593 14.4851 11.2646 14.7778 12 14.7778ZM12 13.6667C11.5587 13.6667 11.1356 13.4911 10.8236 13.1785C10.5115 12.866 10.3363 12.442 10.3363 12C10.3363 11.558 10.5115 11.134 10.8236 10.8215C11.1356 10.5089 11.5587 10.3333 12 10.3333C12.4413 10.3333 12.8644 10.5089 13.1764 10.8215C13.4885 11.134 13.6637 11.558 13.6637 12C13.6637 12.442 13.4885 12.866 13.1764 13.1785C12.8644 13.4911 12.4413 13.6667 12 13.6667Z" fill="#69768C"/>
</g>
<defs>
<clipPath id="clip0_116_153">
<rect width="24" height="24" fill="white"/>
</clipPath>
</defs>
</svg>
