<svg width="24" height="24" viewBox="0 0 24 24" fill="none" xmlns="http://www.w3.org/2000/svg">
<g clip-path="url(#clip0_116_148)">
<path d="M16.6667 10.6H17.3333C17.5101 10.6 17.6797 10.6737 17.8047 10.805C17.9298 10.9363 18 11.1143 18 11.3V18.3C18 18.4857 17.9298 18.6637 17.8047 18.795C17.6797 18.9263 17.5101 19 17.3333 19H6.66667C6.48986 19 6.32029 18.9263 6.19526 18.795C6.07024 18.6637 6 18.4857 6 18.3V11.3C6 11.1143 6.07024 10.9363 6.19526 10.805C6.32029 10.6737 6.48986 10.6 6.66667 10.6H7.33333V9.9C7.33333 9.25652 7.45404 8.61935 7.68856 8.02485C7.92308 7.43036 8.26683 6.89018 8.70017 6.43518C9.13351 5.98017 9.64796 5.61924 10.2141 5.37299C10.7803 5.12674 11.3872 5 12 5C12.6128 5 13.2197 5.12674 13.7859 5.37299C14.352 5.61924 14.8665 5.98017 15.2998 6.43518C15.7332 6.89018 16.0769 7.43036 16.3114 8.02485C16.546 8.61935 16.6667 9.25652 16.6667 9.9V10.6ZM15.3333 10.6V9.9C15.3333 8.97174 14.9821 8.0815 14.357 7.42513C13.7319 6.76875 12.8841 6.4 12 6.4C11.1159 6.4 10.2681 6.76875 9.64298 7.42513C9.01786 8.0815 8.66667 8.97174 8.66667 9.9V10.6H15.3333ZM11.3333 13.4V16.2H12.6667V13.4H11.3333Z" fill="#69768C"/>
</g>
<defs>
<clipPath id="clip0_116_148">
<rect width="24" height="24" fill="white"/>
</clipPath>
</defs>
</svg>
