<svg width="22" height="22" viewBox="0 0 22 22" fill="none" xmlns="http://www.w3.org/2000/svg">
<g clip-path="url(#clip0_106_435)">
<path d="M20.1668 18.3334H1.8335V16.5H2.75016V10.1118C2.75016 5.53946 6.44433 1.83337 11.0002 1.83337C15.556 1.83337 19.2502 5.53946 19.2502 10.1118V16.5H20.1668V18.3334ZM4.5835 16.5H17.4168V10.1118C17.4168 6.55237 14.544 3.66671 11.0002 3.66671C7.45633 3.66671 4.5835 6.55237 4.5835 10.1118V16.5ZM8.7085 19.25H13.2918C13.2918 19.8578 13.0504 20.4407 12.6206 20.8705C12.1908 21.3003 11.608 21.5417 11.0002 21.5417C10.3924 21.5417 9.80948 21.3003 9.37971 20.8705C8.94994 20.4407 8.7085 19.8578 8.7085 19.25Z" fill="#69768C"/>
<path d="M17.4165 7.33337C18.9353 7.33337 20.1665 6.10216 20.1665 4.58337C20.1665 3.06459 18.9353 1.83337 17.4165 1.83337C15.8977 1.83337 14.6665 3.06459 14.6665 4.58337C14.6665 6.10216 15.8977 7.33337 17.4165 7.33337Z" fill="#F35F5F"/>
</g>
<defs>
<clipPath id="clip0_106_435">
<rect width="22" height="22" fill="white"/>
</clipPath>
</defs>
</svg>
