<svg width="100" height="22" viewBox="0 0 100 22" fill="none" xmlns="http://www.w3.org/2000/svg">
<g clip-path="url(#clip0_106_394)">
<path d="M13.0035 8.40804L4.41153 17L3 15.5885L11.591 6.99651H4.01922V5H15V15.9808H13.0035V8.40804Z" fill="#0BAF6D"/>
</g>
<g clip-path="url(#clip1_106_394)">
<path d="M49.825 6.28645L53.7135 10.1759L44.6385 19.25H40.75V15.3605L49.825 6.28554V6.28645ZM51.1212 4.99029L53.0654 3.04512C53.2373 2.87327 53.4704 2.77673 53.7135 2.77673C53.9566 2.77673 54.1897 2.87327 54.3616 3.04512L56.9548 5.63837C57.1267 5.81027 57.2232 6.04339 57.2232 6.28645C57.2232 6.52952 57.1267 6.76264 56.9548 6.93454L55.0097 8.87879L51.1212 4.99029Z" fill="#69768C"/>
</g>
<g clip-path="url(#clip2_106_394)">
<path d="M84.4168 5.50004V2.75004C84.4168 2.50693 84.5134 2.27377 84.6853 2.10186C84.8572 1.92995 85.0904 1.83337 85.3335 1.83337H92.6668C92.9099 1.83337 93.1431 1.92995 93.315 2.10186C93.4869 2.27377 93.5835 2.50693 93.5835 2.75004V5.50004H98.1668V7.33337H96.3335V19.25C96.3335 19.4932 96.2369 19.7263 96.065 19.8982C95.8931 20.0701 95.6599 20.1667 95.4168 20.1667H82.5835C82.3404 20.1667 82.1072 20.0701 81.9353 19.8982C81.7634 19.7263 81.6668 19.4932 81.6668 19.25V7.33337H79.8335V5.50004H84.4168ZM86.2502 3.66671V5.50004H91.7502V3.66671H86.2502Z" fill="#69768C"/>
</g>
<defs>
<clipPath id="clip0_106_394">
<rect width="18" height="18" fill="white" transform="translate(0 2)"/>
</clipPath>
<clipPath id="clip1_106_394">
<rect width="22" height="22" fill="white" transform="translate(38)"/>
</clipPath>
<clipPath id="clip2_106_394">
<rect width="22" height="22" fill="white" transform="translate(78)"/>
</clipPath>
</defs>
</svg>
